<?xml version="1.0" standalone="no"?>
<!DOCTYPE svg PUBLIC "-//W3C//DTD SVG 20010904//EN"
 "http://www.w3.org/TR/2001/REC-SVG-20010904/DTD/svg10.dtd">
<svg version="1.0" xmlns="http://www.w3.org/2000/svg"
 width="500.000000pt" height="500.000000pt" viewBox="0 0 500.000000 500.000000"
 preserveAspectRatio="xMidYMid meet">

<g transform="translate(0.000000,500.000000) scale(0.100000,-0.100000)"
fill="#000000" stroke="none">
<path d="M1300 3473 c-63 -24 -100 -79 -109 -161 l-6 -54 -355 -398 -355 -399
-68 0 c-79 -1 -120 -19 -142 -61 -19 -36 -19 -73 -1 -109 30 -58 13 -56 490
-61 l441 -5 5 -307 c5 -290 6 -308 26 -334 38 -51 71 -69 129 -69 58 0 91 18
129 69 20 26 21 42 24 337 l3 309 989 0 989 0 3 -302 c3 -298 3 -304 27 -341
66 -107 220 -97 272 17 17 37 19 70 19 334 l0 292 436 0 436 0 28 29 c37 36
46 72 31 122 -17 57 -57 79 -146 79 l-71 0 -359 405 -360 405 -6 59 c-10 101
-62 151 -156 151 -44 0 -58 -5 -86 -30 -19 -16 -40 -42 -46 -57 -20 -49 -216
-148 -426 -216 -349 -112 -759 -124 -1127 -31 -132 33 -224 67 -346 127 -95
47 -103 53 -112 88 -13 48 -46 88 -86 105 -34 14 -86 17 -114 7z m2190 -653
l0 -360 -155 0 -155 0 2 291 3 291 120 52 c66 29 134 59 150 69 17 9 31 16 33
17 1 0 2 -162 2 -360z m-1727 224 l57 -18 0 -283 0 -283 -155 0 -155 0 0 344
0 344 98 -43 c53 -23 123 -51 155 -61z m-573 -299 l0 -285 -251 0 c-142 0
-249 4 -247 9 3 10 490 561 495 561 2 0 3 -128 3 -285z m2845 34 c121 -137
233 -265 248 -284 l29 -35 -256 0 -256 0 0 285 c0 157 3 285 8 284 4 0 106
-113 227 -250z m-975 -49 l0 -270 -145 0 -145 0 0 243 0 244 123 25 c67 14
132 26 145 26 l22 2 0 -270z m-953 230 c65 -11 119 -20 121 -20 1 0 2 -108 2
-240 l0 -240 -145 0 -145 0 0 266 0 266 24 -6 c13 -3 77 -15 143 -26z m541
-265 l2 -235 -145 0 -145 0 0 238 0 237 142 -2 143 -2 3 -236z"/>
</g>
</svg>
